<svg xmlns="http://www.w3.org/2000/svg" viewBox="0 0 153.14 182.21"><defs><style>.cls-1{fill:#205481;}.cls-2{fill:#080203;}.cls-3{fill:#070102;}</style></defs><g id="레이어_2" data-name="레이어 2"><g id="레이어_2-2" data-name="레이어 2"><path class="cls-1" d="M.36,4.6,0,138.11l17.13,10.11V94.06l40.71,22.43v55.6l17,10v-134ZM17.09,73.43V36.76L57.84,59.53V95.85Z"/><polygon class="cls-2" points="136.07 36.85 136.07 73.51 95.33 95.93 95.33 59.61 136.07 36.84 136.07 14.47 78.38 48.19 78.38 182.21 91.06 174.7 91.06 174.71 136.04 148.28 136.04 126.81 95.33 151.23 95.33 116.58 136.04 94.15 136.04 126.81 153.14 126.81 152.9 36.85 136.07 36.85"/><polygon class="cls-3" points="79.3 0 86.92 0 72.37 23.36 79.42 23.36 79.42 29.81 64.74 29.81 64.74 23.77 79.3 0"/><polygon class="cls-3" points="88.22 5.52 79.18 19.83 82.02 19.83 82.02 34.76 88.39 34.76 88.22 5.52"/></g></g></svg>